<svg width="24" height="24" viewBox="0 0 24 24" fill="none" xmlns="http://www.w3.org/2000/svg">
<path d="M12.5 23.5H1.5C1.23478 23.5 0.98043 23.3946 0.792893 23.2071C0.605357 23.0196 0.5 22.7652 0.5 22.5V1.5C0.5 1.23478 0.605357 0.98043 0.792893 0.792893C0.98043 0.605357 1.23478 0.5 1.5 0.5H22.5C22.7652 0.5 23.0196 0.605357 23.2071 0.792893C23.3946 0.98043 23.5 1.23478 23.5 1.5V22.5C23.5 22.7652 23.3946 23.0196 23.2071 23.2071C23.0196 23.3946 22.7652 23.5 22.5 23.5H16.5V14.5H19.059C19.1815 14.5009 19.3001 14.4569 19.3923 14.3761C19.4845 14.2954 19.5438 14.1836 19.559 14.062L19.934 11.062C19.9428 10.9913 19.9365 10.9196 19.9153 10.8516C19.8942 10.7836 19.8588 10.7208 19.8114 10.6676C19.7641 10.6144 19.7059 10.5719 19.6408 10.543C19.5757 10.5141 19.5052 10.4995 19.434 10.5H16.5V9.185C16.5005 8.7381 16.6784 8.30967 16.9945 7.99376C17.3106 7.67784 17.7391 7.50026 18.186 7.5H20C20.1326 7.5 20.2598 7.44732 20.3536 7.35355C20.4473 7.25979 20.5 7.13261 20.5 7V4C20.5 3.86739 20.4473 3.74021 20.3536 3.64645C20.2598 3.55268 20.1326 3.5 20 3.5H18.186C16.6786 3.50159 15.2335 4.10102 14.1675 5.16679C13.1015 6.23256 12.5019 7.67764 12.5 9.185V10.5H10C9.86739 10.5 9.74021 10.5527 9.64645 10.6464C9.55268 10.7402 9.5 10.8674 9.5 11V14C9.5 14.1326 9.55268 14.2598 9.64645 14.3536C9.74021 14.4473 9.86739 14.5 10 14.5H12.5V23.5Z" stroke="white" stroke-linecap="round" stroke-linejoin="round"/>
</svg>
