<svg width="265" height="49" viewBox="0 0 265 49" fill="none" xmlns="http://www.w3.org/2000/svg">
<path d="M23.5489 2.92705C23.8483 2.00574 25.1517 2.00574 25.4511 2.92705L29.7761 16.2381C29.91 16.6501 30.2939 16.9291 30.7271 16.9291L44.7232 16.9291C45.6919 16.9291 46.0947 18.1687 45.311 18.7381L33.9879 26.9648C33.6374 27.2194 33.4908 27.6708 33.6247 28.0828L37.9497 41.3939C38.249 42.3152 37.1946 43.0813 36.4108 42.5119L25.0878 34.2852C24.7373 34.0306 24.2627 34.0306 23.9122 34.2852L12.5892 42.5119C11.8054 43.0813 10.751 42.3152 11.0503 41.3939L15.3753 28.0828C15.5092 27.6708 15.3626 27.2194 15.0121 26.9648L3.68901 18.7381C2.9053 18.1687 3.30808 16.9291 4.2768 16.9291L18.2729 16.9291C18.7061 16.9291 19.09 16.6501 19.2239 16.2381L23.5489 2.92705Z" fill="#FF851B"/>
<path d="M77.4488 2.92705C77.7482 2.00574 79.0516 2.00574 79.351 2.92705L83.676 16.2381C83.8099 16.6501 84.1938 16.9291 84.627 16.9291L98.6231 16.9291C99.5918 16.9291 99.9946 18.1687 99.2109 18.7381L87.8878 26.9648C87.5373 27.2194 87.3907 27.6708 87.5246 28.0828L91.8496 41.3939C92.1489 42.3152 91.0945 43.0813 90.3107 42.5119L78.9877 34.2852C78.6372 34.0306 78.1626 34.0306 77.8121 34.2852L66.4891 42.5119C65.7053 43.0813 64.6509 42.3152 64.9502 41.3939L69.2752 28.0828C69.4091 27.6708 69.2625 27.2194 68.912 26.9648L57.5889 18.7381C56.8052 18.1687 57.208 16.9291 58.1767 16.9291L72.1728 16.9291C72.606 16.9291 72.9899 16.6501 73.1238 16.2381L77.4488 2.92705Z" fill="#FF851B"/>
<path d="M131.349 2.92705C131.648 2.00574 132.952 2.00574 133.251 2.92705L137.576 16.2381C137.71 16.6501 138.094 16.9291 138.527 16.9291L152.523 16.9291C153.492 16.9291 153.895 18.1687 153.111 18.7381L141.788 26.9648C141.437 27.2194 141.291 27.6708 141.424 28.0828L145.749 41.3939C146.049 42.3152 144.994 43.0813 144.211 42.5119L132.888 34.2852C132.537 34.0306 132.063 34.0306 131.712 34.2852L120.389 42.5119C119.605 43.0813 118.551 42.3152 118.85 41.3939L123.175 28.0828C123.309 27.6708 123.162 27.2194 122.812 26.9648L111.489 18.7381C110.705 18.1687 111.108 16.9291 112.077 16.9291L126.073 16.9291C126.506 16.9291 126.89 16.6501 127.024 16.2381L131.349 2.92705Z" fill="#FF851B"/>
<path d="M185.249 2.92705C185.548 2.00574 186.852 2.00574 187.151 2.92705L191.476 16.2381C191.61 16.6501 191.994 16.9291 192.427 16.9291L206.423 16.9291C207.392 16.9291 207.795 18.1687 207.011 18.7381L195.688 26.9648C195.338 27.2194 195.191 27.6708 195.325 28.0828L199.65 41.3939C199.949 42.3152 198.895 43.0813 198.111 42.5119L186.788 34.2852C186.437 34.0306 185.963 34.0306 185.612 34.2852L174.289 42.5119C173.506 43.0813 172.451 42.3152 172.751 41.3939L177.076 28.0828C177.209 27.6708 177.063 27.2194 176.712 26.9648L165.389 18.7381C164.605 18.1687 165.008 16.9291 165.977 16.9291L179.973 16.9291C180.406 16.9291 180.79 16.6501 180.924 16.2381L185.249 2.92705Z" fill="#FF851B"/>
<path d="M239.149 2.92705C239.448 2.00574 240.752 2.00574 241.051 2.92705L245.376 16.2381C245.51 16.6501 245.894 16.9291 246.327 16.9291L260.323 16.9291C261.292 16.9291 261.695 18.1687 260.911 18.7381L249.588 26.9648C249.238 27.2194 249.091 27.6708 249.225 28.0828L253.55 41.3939C253.849 42.3152 252.795 43.0813 252.011 42.5119L240.688 34.2852C240.337 34.0306 239.863 34.0306 239.512 34.2852L228.189 42.5119C227.406 43.0813 226.351 42.3152 226.65 41.3939L230.975 28.0828C231.109 27.6708 230.963 27.2194 230.612 26.9648L219.289 18.7381C218.505 18.1687 218.908 16.9291 219.877 16.9291L233.873 16.9291C234.306 16.9291 234.69 16.6501 234.824 16.2381L239.149 2.92705Z" fill="#FF851B"/>
</svg>
