<svg width="24" height="24" viewBox="0 0 24 24" fill="none" xmlns="http://www.w3.org/2000/svg">
<g opacity="0.9">
<path d="M18.5 12.5H4.5C2.29086 12.5 0.5 14.2909 0.5 16.5V19.5C0.5 21.7091 2.29086 23.5 4.5 23.5H18.5C20.7091 23.5 22.5 21.7091 22.5 19.5V16.5C22.5 14.2909 20.7091 12.5 18.5 12.5Z" stroke="white" strokeLinecap="round" strokeLinejoin="round"/>
<path d="M3.5 1L6.5 5L6.501 9.502" stroke="white" strokeLinecap="round" strokeLinejoin="round"/>
<path d="M9.5 1L6.5 5L6.501 9.502" stroke="white" strokeLinecap="round" strokeLinejoin="round"/>
<path d="M12.5 8C12.5 8.39782 12.342 8.77936 12.0607 9.06066C11.7794 9.34196 11.3978 9.5 11 9.5C10.6022 9.5 10.2206 9.34196 9.93934 9.06066C9.65804 8.77936 9.5 8.39782 9.5 8V5C9.5 4.60218 9.65804 4.22064 9.93934 3.93934C10.2206 3.65804 10.6022 3.5 11 3.5C11.3978 3.5 11.7794 3.65804 12.0607 3.93934C12.342 4.22064 12.5 4.60218 12.5 5V8Z" stroke="white" strokeLinecap="round" strokeLinejoin="round"/>
<path d="M18.5 3.5V7.5C18.5 8.03043 18.2893 8.53914 17.9142 8.91421C17.5391 9.28929 17.0304 9.5 16.5 9.5C15.9696 9.5 15.4609 9.28929 15.0858 8.91421C14.7107 8.53914 14.5 8.03043 14.5 7.5V3.5" stroke="white" strokeLinecap="round" strokeLinejoin="round"/>
<path d="M18.5 3.49695V9.49995" stroke="white" strokeLinecap="round" strokeLinejoin="round"/>
<path d="M10.5 16.4969V20.4999" stroke="white" strokeLinecap="round" strokeLinejoin="round"/>
<path d="M3.479 15.5H7.521" stroke="white" strokeLinecap="round" strokeLinejoin="round"/>
<path d="M5.5 15.5V20.478" stroke="white" strokeLinecap="round" strokeLinejoin="round"/>
<path d="M12.5 14.5V20.478" stroke="white" strokeLinecap="round" strokeLinejoin="round"/>
<path d="M14.5 19.5C14.5 19.7652 14.3946 20.0196 14.2071 20.2071C14.0196 20.3946 13.7652 20.5 13.5 20.5C13.2348 20.5 12.9804 20.3946 12.7929 20.2071C12.6054 20.0196 12.5 19.7652 12.5 19.5V17.5C12.5 17.2348 12.6054 16.9804 12.7929 16.7929C12.9804 16.6054 13.2348 16.5 13.5 16.5C13.7652 16.5 14.0196 16.6054 14.2071 16.7929C14.3946 16.9804 14.5 17.2348 14.5 17.5V19.5Z" stroke="white" strokeLinecap="round" strokeLinejoin="round"/>
<path d="M8.5 16.5V19.5C8.5 19.7652 8.60536 20.0196 8.79289 20.2071C8.98043 20.3946 9.23478 20.5 9.5 20.5C9.76522 20.5 10.0196 20.3946 10.2071 20.2071C10.3946 20.0196 10.5 19.7652 10.5 19.5V16.5" stroke="white" strokeLinecap="round" strokeLinejoin="round"/>
<path d="M18.672 19.625C18.6592 19.7542 18.6208 19.8795 18.5591 19.9937C18.4973 20.1079 18.4135 20.2086 18.3124 20.2901C18.2113 20.3715 18.095 20.432 17.9703 20.4681C17.8456 20.5041 17.7149 20.515 17.586 20.5C17.2996 20.4753 17.0319 20.3477 16.8323 20.1409C16.6327 19.9341 16.5146 19.6621 16.5 19.375V17.5C16.5 17.2348 16.6054 16.9804 16.7929 16.7929C16.9804 16.6054 17.2348 16.5 17.5 16.5C17.7652 16.5 18.0196 16.6054 18.2071 16.7929C18.3946 16.9804 18.5 17.2348 18.5 17.5V18.5H16.5" stroke="white" strokeLinecap="round" strokeLinejoin="round"/>
</g>
</svg>
